<mxfile host="drawio-plugin" modified="2022-02-22T09:15:43.922Z" agent="5.0 (Macintosh; Intel Mac OS X 12_2_1) AppleWebKit/537.36 (KHTML, like Gecko) Chrome/89.0.4389.114 Safari/537.36" etag="nVcTCoHpqLn4v1gpXYTP" version="15.5.4" type="embed"><diagram id="KVIdjVaWXQshsl22qOCJ" name="Page-1"><mxGraphModel dx="1157" dy="574" grid="1" gridSize="10" guides="1" tooltips="1" connect="1" arrows="1" fold="1" page="1" pageScale="1" pageWidth="827" pageHeight="1169" math="0" shadow="0"><root><mxCell id="0"/><mxCell id="1" parent="0"/><mxCell id="E5lTjONRf4gHLucLC-GG-1" value="" style="rounded=1;whiteSpace=wrap;html=1;sketch=1;fillColor=#FFEB99;strokeColor=#FFD966;strokeWidth=1;fontStyle=1;fillStyle=hachure;gradientColor=none;" parent="1" vertex="1"><mxGeometry x="140" y="110" width="130" height="310" as="geometry"/></mxCell><mxCell id="E5lTjONRf4gHLucLC-GG-2" value="Domain Ownership" style="text;html=1;strokeColor=none;fillColor=none;align=center;verticalAlign=middle;whiteSpace=wrap;rounded=0;sketch=1;fontStyle=1;fontFamily=Architects Daughter;fontSource=https%3A%2F%2Ffonts.googleapis.com%2Fcss%3Ffamily%3DArchitects%2BDaughter;fontSize=17;" parent="1" vertex="1"><mxGeometry x="175" y="123" width="60" height="30" as="geometry"/></mxCell><mxCell id="E5lTjONRf4gHLucLC-GG-3" value="Domain&lt;br style=&quot;font-size: 12px;&quot;&gt;Bounded Context" style="rounded=1;whiteSpace=wrap;html=1;sketch=1;fontFamily=Architects Daughter;fontSource=https%3A%2F%2Ffonts.googleapis.com%2Fcss%3Ffamily%3DArchitects%2BDaughter;strokeColor=#FFD966;fontStyle=1;fontSize=12;" parent="1" vertex="1"><mxGeometry x="155" y="180" width="100" height="60" as="geometry"/></mxCell><mxCell id="E5lTjONRf4gHLucLC-GG-4" value="Domain Teams" style="rounded=1;whiteSpace=wrap;html=1;sketch=1;fontFamily=Architects Daughter;fontSource=https%3A%2F%2Ffonts.googleapis.com%2Fcss%3Ffamily%3DArchitects%2BDaughter;strokeColor=#FFD966;fontStyle=1;fontSize=12;" parent="1" vertex="1"><mxGeometry x="155" y="260" width="100" height="60" as="geometry"/></mxCell><mxCell id="E5lTjONRf4gHLucLC-GG-5" value="Operational &amp;amp; Analytical Data" style="rounded=1;whiteSpace=wrap;html=1;sketch=1;fontFamily=Architects Daughter;fontSource=https%3A%2F%2Ffonts.googleapis.com%2Fcss%3Ffamily%3DArchitects%2BDaughter;strokeColor=#FFD966;fontStyle=1;fontSize=12;" parent="1" vertex="1"><mxGeometry x="155" y="340" width="100" height="60" as="geometry"/></mxCell><mxCell id="E5lTjONRf4gHLucLC-GG-6" value="" style="rounded=1;whiteSpace=wrap;html=1;sketch=1;fillColor=#FFD4BF;strokeColor=#FF7654;strokeWidth=1;fontStyle=1;fillStyle=hachure;" parent="1" vertex="1"><mxGeometry x="290" y="110" width="130" height="310" as="geometry"/></mxCell><mxCell id="E5lTjONRf4gHLucLC-GG-7" value="Data as a Product" style="text;html=1;strokeColor=none;fillColor=none;align=center;verticalAlign=middle;whiteSpace=wrap;rounded=0;sketch=1;fontStyle=1;fontFamily=Architects Daughter;fontSource=https%3A%2F%2Ffonts.googleapis.com%2Fcss%3Ffamily%3DArchitects%2BDaughter;fontSize=17;" parent="1" vertex="1"><mxGeometry x="300" y="123" width="110" height="30" as="geometry"/></mxCell><mxCell id="E5lTjONRf4gHLucLC-GG-8" value="Product Thinking" style="rounded=1;whiteSpace=wrap;html=1;sketch=1;fontFamily=Architects Daughter;fontSource=https%3A%2F%2Ffonts.googleapis.com%2Fcss%3Ffamily%3DArchitects%2BDaughter;strokeColor=#FF7654;fontStyle=1;fontSize=12;" parent="1" vertex="1"><mxGeometry x="305" y="180" width="100" height="60" as="geometry"/></mxCell><mxCell id="E5lTjONRf4gHLucLC-GG-9" value="Data Product by Domain Team" style="rounded=1;whiteSpace=wrap;html=1;sketch=1;fontFamily=Architects Daughter;fontSource=https%3A%2F%2Ffonts.googleapis.com%2Fcss%3Ffamily%3DArchitects%2BDaughter;strokeColor=#FF7654;fontStyle=1;fontSize=12;" parent="1" vertex="1"><mxGeometry x="305" y="260" width="100" height="60" as="geometry"/></mxCell><mxCell id="E5lTjONRf4gHLucLC-GG-10" value="Interoperability Interfaces" style="rounded=1;whiteSpace=wrap;html=1;sketch=1;fontFamily=Architects Daughter;fontSource=https%3A%2F%2Ffonts.googleapis.com%2Fcss%3Ffamily%3DArchitects%2BDaughter;strokeColor=#FF7654;fontStyle=1;fontSize=12;" parent="1" vertex="1"><mxGeometry x="305" y="340" width="100" height="60" as="geometry"/></mxCell><mxCell id="E5lTjONRf4gHLucLC-GG-11" value="" style="rounded=1;whiteSpace=wrap;html=1;sketch=1;fillColor=#D9EDFF;strokeColor=#99CCFF;strokeWidth=1;fontStyle=1" parent="1" vertex="1"><mxGeometry x="440" y="110" width="130" height="310" as="geometry"/></mxCell><mxCell id="E5lTjONRf4gHLucLC-GG-12" value="Self-Serve&lt;br&gt;Data Platform" style="text;html=1;strokeColor=none;fillColor=none;align=center;verticalAlign=middle;whiteSpace=wrap;rounded=0;sketch=1;fontStyle=1;fontFamily=Architects Daughter;fontSource=https%3A%2F%2Ffonts.googleapis.com%2Fcss%3Ffamily%3DArchitects%2BDaughter;fontSize=17;" parent="1" vertex="1"><mxGeometry x="440" y="123" width="130" height="30" as="geometry"/></mxCell><mxCell id="E5lTjONRf4gHLucLC-GG-13" value="Domain-agnostic" style="rounded=1;whiteSpace=wrap;html=1;sketch=1;fontFamily=Architects Daughter;fontSource=https%3A%2F%2Ffonts.googleapis.com%2Fcss%3Ffamily%3DArchitects%2BDaughter;strokeColor=#99CCFF;fontStyle=1;fontSize=12;" parent="1" vertex="1"><mxGeometry x="455" y="180" width="100" height="60" as="geometry"/></mxCell><mxCell id="E5lTjONRf4gHLucLC-GG-14" value="Data Platform Team" style="rounded=1;whiteSpace=wrap;html=1;sketch=1;fontFamily=Architects Daughter;fontSource=https%3A%2F%2Ffonts.googleapis.com%2Fcss%3Ffamily%3DArchitects%2BDaughter;strokeColor=#99CCFF;fontStyle=1;fontSize=12;" parent="1" vertex="1"><mxGeometry x="455" y="260" width="100" height="60" as="geometry"/></mxCell><mxCell id="E5lTjONRf4gHLucLC-GG-15" value="Self-Service&lt;br style=&quot;font-size: 12px;&quot;&gt;Data Platform" style="rounded=1;whiteSpace=wrap;html=1;sketch=1;fontFamily=Architects Daughter;fontSource=https%3A%2F%2Ffonts.googleapis.com%2Fcss%3Ffamily%3DArchitects%2BDaughter;strokeColor=#99CCFF;fontStyle=1;fontSize=12;" parent="1" vertex="1"><mxGeometry x="455" y="340" width="100" height="60" as="geometry"/></mxCell><mxCell id="E5lTjONRf4gHLucLC-GG-16" value="" style="rounded=1;whiteSpace=wrap;html=1;sketch=1;fillColor=#DCE3DC;strokeColor=#AFDBAF;strokeWidth=1;fontStyle=1" parent="1" vertex="1"><mxGeometry x="590" y="110" width="130" height="310" as="geometry"/></mxCell><mxCell id="E5lTjONRf4gHLucLC-GG-17" value="Federated Governance" style="text;html=1;strokeColor=none;fillColor=none;align=center;verticalAlign=middle;whiteSpace=wrap;rounded=0;sketch=1;fontStyle=1;fontFamily=Architects Daughter;fontSource=https%3A%2F%2Ffonts.googleapis.com%2Fcss%3Ffamily%3DArchitects%2BDaughter;fontSize=17;" parent="1" vertex="1"><mxGeometry x="609.5" y="123" width="91" height="30" as="geometry"/></mxCell><mxCell id="E5lTjONRf4gHLucLC-GG-18" value="Context Mapping" style="rounded=1;whiteSpace=wrap;html=1;sketch=1;fontFamily=Architects Daughter;fontSource=https%3A%2F%2Ffonts.googleapis.com%2Fcss%3Ffamily%3DArchitects%2BDaughter;strokeColor=#AFDBAF;fontStyle=1;fontSize=12;" parent="1" vertex="1"><mxGeometry x="605" y="180" width="100" height="60" as="geometry"/></mxCell><mxCell id="E5lTjONRf4gHLucLC-GG-19" value="Guild" style="rounded=1;whiteSpace=wrap;html=1;sketch=1;fontFamily=Architects Daughter;fontSource=https%3A%2F%2Ffonts.googleapis.com%2Fcss%3Ffamily%3DArchitects%2BDaughter;strokeColor=#AFDBAF;fontStyle=1;fontSize=12;" parent="1" vertex="1"><mxGeometry x="605" y="260" width="100" height="60" as="geometry"/></mxCell><mxCell id="E5lTjONRf4gHLucLC-GG-20" value="Data Governance" style="rounded=1;whiteSpace=wrap;html=1;sketch=1;fontFamily=Architects Daughter;fontSource=https%3A%2F%2Ffonts.googleapis.com%2Fcss%3Ffamily%3DArchitects%2BDaughter;strokeColor=#AFDBAF;fontStyle=1;fontSize=12;" parent="1" vertex="1"><mxGeometry x="605" y="340" width="100" height="60" as="geometry"/></mxCell><mxCell id="E5lTjONRf4gHLucLC-GG-21" value="Strategic Domain-driven Design" style="text;html=1;strokeColor=none;fillColor=none;align=left;verticalAlign=middle;whiteSpace=wrap;rounded=0;sketch=1;fontFamily=Architects Daughter;fontSource=https%3A%2F%2Ffonts.googleapis.com%2Fcss%3Ffamily%3DArchitects%2BDaughter;fontSize=17;fontStyle=1" parent="1" vertex="1"><mxGeometry x="10" y="195" width="120" height="30" as="geometry"/></mxCell><mxCell id="E5lTjONRf4gHLucLC-GG-22" value="Socio-technical Perspective" style="text;html=1;strokeColor=none;fillColor=none;align=left;verticalAlign=middle;whiteSpace=wrap;rounded=0;sketch=1;fontFamily=Architects Daughter;fontSource=https%3A%2F%2Ffonts.googleapis.com%2Fcss%3Ffamily%3DArchitects%2BDaughter;fontSize=17;fontStyle=1" parent="1" vertex="1"><mxGeometry x="10" y="275" width="130" height="30" as="geometry"/></mxCell><mxCell id="E5lTjONRf4gHLucLC-GG-24" value="Technology" style="text;html=1;strokeColor=none;fillColor=none;align=left;verticalAlign=middle;whiteSpace=wrap;rounded=0;sketch=1;fontFamily=Architects Daughter;fontSource=https%3A%2F%2Ffonts.googleapis.com%2Fcss%3Ffamily%3DArchitects%2BDaughter;fontSize=17;fontStyle=1" parent="1" vertex="1"><mxGeometry x="10" y="355" width="130" height="30" as="geometry"/></mxCell><mxCell id="E5lTjONRf4gHLucLC-GG-26" value="datamesh-architecture.com" style="text;html=1;strokeColor=none;fillColor=none;align=right;verticalAlign=middle;whiteSpace=wrap;rounded=0;sketch=1;fillStyle=hachure;fontFamily=Architects Daughter;fontSource=https%3A%2F%2Ffonts.googleapis.com%2Fcss%3Ffamily%3DArchitects%2BDaughter;fontSize=12;fontColor=#000000;" parent="1" vertex="1"><mxGeometry x="450" y="420" width="270" height="30" as="geometry"/></mxCell><mxCell id="qw9SItL_D5wE4cjDGZzM-1" value="What is Data Mesh?" style="text;html=1;strokeColor=none;fillColor=none;align=center;verticalAlign=middle;whiteSpace=wrap;rounded=0;sketch=1;fontFamily=Architects Daughter;fontSource=https%3A%2F%2Ffonts.googleapis.com%2Fcss%3Ffamily%3DArchitects%2BDaughter;fontSize=21;fontStyle=1" parent="1" vertex="1"><mxGeometry x="140" y="60" width="580" height="30" as="geometry"/></mxCell></root></mxGraphModel></diagram></mxfile>